<svg viewBox="0 0 200 200" xmlns="http://www.w3.org/2000/svg">
  <defs>
    <linearGradient id="ghostGradient" x1="0%" y1="0%" x2="100%" y2="100%">
      <stop offset="0%" style="stop-color:#667eea;stop-opacity:1" />
      <stop offset="100%" style="stop-color:#764ba2;stop-opacity:1" />
    </linearGradient>

    <filter id="glow">
      <feGaussianBlur stdDeviation="3" result="coloredBlur"/>
      <feMerge>
        <feMergeNode in="coloredBlur"/>
        <feMergeNode in="SourceGraphic"/>
      </feMerge>
    </filter>
  </defs>

  <rect width="200" height="200" rx="40" fill="url(#ghostGradient)" opacity="0.05"/>

  <g filter="url(#glow)">
    <path d="M 100 40
             C 70 40, 50 60, 50 90
             L 50 140
             L 62 128
             L 74 140
             L 86 128
             L 98 140
             L 110 128
             L 122 140
             L 134 128
             L 146 140
             L 150 140
             L 150 90
             C 150 60, 130 40, 100 40 Z"
          fill="url(#ghostGradient)"/>
  </g>

  <ellipse cx="82" cy="85" rx="7" ry="9" fill="#1a202c"/>
  <ellipse cx="118" cy="85" rx="7" ry="9" fill="#1a202c"/>
  <circle cx="84" cy="83" r="2" fill="white" opacity="0.6"/>
  <circle cx="120" cy="83" r="2" fill="white" opacity="0.6"/>

  <rect x="70" y="105" width="60" height="45" rx="4" fill="white" stroke="white" stroke-width="2" opacity="0.4"/>
  <rect x="88" y="100" width="24" height="8" rx="3" fill="white" opacity="0.4"/>

  <path d="M 85 125 L 90 120 L 85 115" stroke="white" stroke-width="2.5" fill="none" stroke-linecap="round"/>
  <path d="M 115 125 L 110 130 L 115 135" stroke="white" stroke-width="2.5" fill="none" stroke-linecap="round"/>
  <path d="M 90 120 Q 100 118 110 120" stroke="white" stroke-width="2" fill="none"/>
  <path d="M 110 130 Q 100 132 90 130" stroke="white" stroke-width="2" fill="none"/>
</svg>